<?xml version="1.0" encoding="utf-8"?>
<!-- Svg Vector Icons : http://www.onlinewebfonts.com/icon -->
<!DOCTYPE svg PUBLIC "-//W3C//DTD SVG 1.1//EN" "http://www.w3.org/Graphics/SVG/1.1/DTD/svg11.dtd">
<svg version="1.1" xmlns="http://www.w3.org/2000/svg" xmlns:xlink="http://www.w3.org/1999/xlink" x="0px" y="0px" viewBox="0 0 1000 1000" enable-background="new 0 0 1000 1000" xml:space="preserve">
<metadata> Svg Vector Icons : http://www.onlinewebfonts.com/icon </metadata>
<g><path d="M964.2,199.1H35.8c-14.2,0-25.8,11.6-25.8,25.8c0,14.2,11.5,25.8,25.8,25.8h928.4c14.2,0,25.8-11.6,25.8-25.8C990,210.7,978.5,199.1,964.2,199.1z"/><path d="M792.3,474.2H35.8C21.5,474.2,10,485.8,10,500s11.5,25.8,25.8,25.8h756.5c14.2,0,25.8-11.6,25.8-25.8S806.5,474.2,792.3,474.2z"/><path d="M620.4,749.3H35.8c-14.2,0-25.8,11.6-25.8,25.8c0,14.2,11.5,25.8,25.8,25.8h584.6c14.2,0,25.8-11.6,25.8-25.8C646.1,760.8,634.6,749.3,620.4,749.3z"/></g>
</svg>